<svg width="1394" height="592" viewBox="0 0 1394 592" fill="none" xmlns="http://www.w3.org/2000/svg">
<path fill-rule="evenodd" clip-rule="evenodd" d="M821.713 49.6835C816.742 51.1825 811.994 55.1017 809.961 59.3838C807.597 64.3651 807.54 74.1844 809.849 78.649L811.611 82.0585H796.521C779.595 82.0585 775.656 83.1045 770.789 88.8879C762.117 99.1937 764.993 113.922 776.845 119.909C781.703 122.363 783.377 122.51 806.573 122.51H831.153L833.586 127.279L836.02 132.048L832.928 140.859C823.655 167.283 805.983 191.9 781.264 212.824C774.175 218.822 771.696 220.287 769.128 219.99C767.353 219.785 749.866 218.256 730.268 216.594C696.222 213.705 694.409 213.657 689.508 215.53C681.796 218.475 678.22 223.868 677.702 233.335C677.346 239.858 677.679 241.55 679.985 244.914C683.891 250.61 688.052 253.282 694.076 253.962L699.373 254.558L694.269 260.534C685.974 270.242 684.6 277.61 689.393 286.673C694.187 295.739 706.572 299.655 716.092 295.115C718.452 293.99 726.355 286.172 735.275 276.136L750.445 259.072L757.017 259.631C767.675 260.537 768.136 260.787 775.381 269.558C797.709 296.593 810.701 325.596 816.212 360.706L817.591 369.487L812.628 377.465C779.458 430.789 723.265 480.142 671.866 501.091C659.885 505.974 655.048 509.95 653.261 516.381C651.577 522.446 651.799 525.763 654.25 531.16C657.928 539.259 666.69 544.118 675.171 542.761C686.437 540.96 716.816 525.95 738.74 511.353C765.489 493.544 801.334 460.407 822.433 433.986C831.339 422.832 852.286 392.689 853.35 389.494C854.061 387.365 869.738 384.779 886.099 384.095C910.515 383.074 931.057 386.638 958.482 396.657C968.24 400.223 968.518 400.43 971.385 406.275L974.315 412.249L960.445 429.474C945.369 448.198 943.308 451.729 943.308 458.844C943.308 469.552 950.87 477.467 961.859 478.263C971.527 478.962 975.205 476.716 985.644 463.738L994.527 452.694L998.343 460.264C1003.77 471.029 1011.75 475.37 1022.44 473.365C1027.46 472.423 1034.39 466.576 1036.52 461.49C1039.89 453.41 1039.08 450.95 1020.65 413.544L1003.17 378.077L1006.33 368.469C1016.68 336.983 1033.41 314.095 1062.37 291.809L1069.02 286.694L1098.92 289.191C1115.62 290.587 1130.31 291.301 1132.22 290.811C1134.09 290.329 1137.81 287.747 1140.49 285.075C1144.32 281.238 1145.52 279.059 1146.17 274.705C1147.77 264.041 1141.53 254.495 1131.14 251.716L1126.24 250.405L1131.37 238.755C1135.9 228.454 1136.44 226.335 1136.04 220.445C1134.93 204.002 1116.8 195.988 1103.56 206.085C1100.56 208.373 1097.97 213.053 1091.32 228.181L1082.87 247.374L1077.17 246.617C1072.11 245.947 1070.71 245.074 1064.94 239.024C1041.89 214.859 1026.24 180.917 1024.01 150.242L1023.63 145.037L1049.64 113.48C1063.94 96.124 1076.55 80.2717 1077.66 78.2526C1080.13 73.7822 1080.3 64.6448 1078.01 60.2136C1075.12 54.629 1068.74 49.9297 1062.83 49.0444C1054.24 47.7557 1048.27 50.8901 1039.57 61.2769C1035.59 66.0271 1031.93 70.041 1031.45 70.1947C1030.96 70.3496 1028.23 66.8037 1025.37 62.3159C1022.51 57.827 1018.58 53.1751 1016.65 51.9777C1005.16 44.8744 990.267 50.2764 986.042 63.0776C983.681 70.2305 985.448 75.7273 994.79 90.284C999.53 97.6693 1003.41 104.1 1003.41 104.575C1003.41 105.049 1000.82 108.421 997.663 112.069C992.639 117.868 990.937 119.003 984.083 121.124C971.785 124.93 962.367 126.204 946.776 126.168C922.649 126.111 899.088 121.129 879.678 111.978L869.792 107.316L857.141 81.9117C850.183 67.9398 843.444 55.5201 842.164 54.3135C836.986 49.4327 828.741 47.5662 821.713 49.6835ZM931.473 199.375C961.257 206.396 981.489 235.395 976.967 264.58C972.498 293.426 948.278 314.473 919.442 314.566C873.044 314.716 845.102 263.646 870.273 224.702C883.403 204.386 908.566 193.973 931.473 199.375Z" fill="black"/>
<path d="M0 351.859L82.9085 116.951C87.2586 104.413 91.6087 93.793 95.9588 85.0927C100.565 76.3924 106.194 69.7392 112.848 65.1332C119.757 60.5271 128.585 58.2241 139.332 58.2241C150.336 58.2241 159.292 60.5271 166.201 65.1332C173.11 69.7392 178.867 76.3924 183.473 85.0927C188.335 93.5371 192.813 103.901 196.908 116.184L277.513 351.859H209.19L190.382 290.829H87.1306L67.555 351.859H0ZM138.565 132.305L105.555 234.021H172.342L140.868 132.305C140.612 131.281 140.228 130.769 139.716 130.769C139.204 130.769 138.82 131.281 138.565 132.305Z" fill="black"/>
<path d="M299.053 351.859V223.274C299.053 203.57 303.019 186.554 310.952 172.224C319.14 157.894 330.655 146.89 345.497 139.214C360.338 131.281 377.867 127.315 398.082 127.315C418.298 127.315 435.826 131.281 450.668 139.214C465.509 146.89 476.896 157.894 484.829 172.224C493.018 186.554 497.112 203.57 497.112 223.274V351.859H434.93V224.042C434.93 210.224 431.476 199.604 424.567 192.183C417.914 184.762 409.086 181.052 398.082 181.052C387.335 181.052 378.507 184.762 371.598 192.183C364.689 199.604 361.234 210.224 361.234 224.042V351.859H299.053Z" fill="black"/>
<path d="M615.12 351.859C597.208 351.859 582.75 346.486 571.747 335.738C560.999 324.735 555.626 310.277 555.626 292.365V182.971H519.545V133.072H555.626V75.4968H617.807V133.072H662.332V182.971H617.807V281.617C617.807 286.479 619.342 290.445 622.413 293.516C625.484 296.587 629.322 298.122 633.928 298.122H668.857V351.859H615.12Z" fill="black"/>
<path d="M1173.58 351.859V223.274C1173.58 203.57 1177.55 186.554 1185.48 172.224C1193.67 157.894 1205.19 146.89 1220.03 139.214C1234.87 131.281 1252.4 127.315 1272.61 127.315C1292.83 127.315 1310.36 131.281 1325.2 139.214C1340.04 146.89 1351.43 157.894 1359.36 172.224C1367.55 186.554 1371.64 203.57 1371.64 223.274V351.859H1309.46V224.042C1309.46 210.224 1306.01 199.604 1299.1 192.183C1292.44 184.762 1283.62 181.052 1272.61 181.052C1261.86 181.052 1253.04 184.762 1246.13 192.183C1239.22 199.604 1235.76 210.224 1235.76 224.042V351.859H1173.58Z" fill="black"/>
<path d="M1091.76 463.792V394.003H1100.21V456.295H1132.65V463.792H1091.76Z" fill="black"/>
<path d="M1176.04 463.792H1167.18L1192.8 394.003H1201.53L1227.15 463.792H1218.29L1197.44 405.044H1196.89L1176.04 463.792ZM1179.31 436.53H1215.02V444.027H1179.31V436.53Z" fill="black"/>
<path d="M1261.05 463.792V394.003H1285.45C1290.31 394.003 1294.32 394.844 1297.48 396.525C1300.64 398.183 1302.99 400.421 1304.53 403.238C1306.08 406.032 1306.85 409.133 1306.85 412.541C1306.85 415.539 1306.32 418.015 1305.25 419.969C1304.2 421.923 1302.82 423.468 1301.09 424.604C1299.39 425.739 1297.54 426.58 1295.54 427.125V427.807C1297.67 427.943 1299.82 428.693 1301.98 430.056C1304.13 431.419 1305.94 433.373 1307.39 435.917C1308.85 438.461 1309.58 441.574 1309.58 445.254C1309.58 448.752 1308.78 451.899 1307.19 454.693C1305.6 457.487 1303.09 459.702 1299.66 461.338C1296.23 462.974 1291.76 463.792 1286.27 463.792H1261.05ZM1269.5 456.295H1286.27C1291.79 456.295 1295.71 455.227 1298.02 453.092C1300.36 450.933 1301.53 448.321 1301.53 445.254C1301.53 442.891 1300.93 440.71 1299.73 438.711C1298.52 436.689 1296.81 435.076 1294.58 433.872C1292.36 432.646 1289.72 432.032 1286.68 432.032H1269.5V456.295ZM1269.5 424.672H1285.18C1287.72 424.672 1290.02 424.172 1292.06 423.172C1294.13 422.173 1295.76 420.764 1296.97 418.947C1298.19 417.13 1298.81 414.994 1298.81 412.541C1298.81 409.474 1297.74 406.873 1295.6 404.737C1293.47 402.579 1290.08 401.5 1285.45 401.5H1269.5V424.672Z" fill="black"/>
<path d="M1384.66 411.45C1384.25 407.997 1382.59 405.316 1379.68 403.408C1376.77 401.5 1373.21 400.546 1368.98 400.546C1365.89 400.546 1363.19 401.045 1360.87 402.045C1358.58 403.045 1356.78 404.419 1355.49 406.168C1354.22 407.918 1353.58 409.905 1353.58 412.132C1353.58 413.994 1354.02 415.596 1354.91 416.936C1355.82 418.254 1356.98 419.356 1358.38 420.242C1359.79 421.105 1361.27 421.821 1362.81 422.389C1364.36 422.934 1365.78 423.377 1367.07 423.718L1374.16 425.626C1375.98 426.103 1378 426.762 1380.23 427.602C1382.48 428.443 1384.62 429.59 1386.67 431.044C1388.73 432.475 1390.44 434.315 1391.78 436.564C1393.12 438.813 1393.79 441.574 1393.79 444.845C1393.79 448.616 1392.8 452.024 1390.82 455.068C1388.87 458.112 1386.01 460.532 1382.24 462.326C1378.49 464.121 1373.93 465.018 1368.57 465.018C1363.58 465.018 1359.25 464.212 1355.59 462.599C1351.96 460.986 1349.09 458.737 1347 455.852C1344.94 452.967 1343.77 449.616 1343.49 445.799H1352.22C1352.44 448.434 1353.33 450.615 1354.87 452.342C1356.44 454.046 1358.42 455.318 1360.8 456.158C1363.21 456.976 1365.8 457.385 1368.57 457.385C1371.8 457.385 1374.7 456.863 1377.26 455.818C1379.83 454.75 1381.86 453.273 1383.36 451.388C1384.86 449.479 1385.61 447.253 1385.61 444.709C1385.61 442.392 1384.96 440.506 1383.67 439.052C1382.37 437.598 1380.67 436.417 1378.56 435.508C1376.44 434.599 1374.16 433.804 1371.71 433.123L1363.12 430.669C1357.67 429.102 1353.35 426.864 1350.17 423.956C1346.99 421.048 1345.4 417.243 1345.4 412.541C1345.4 408.633 1346.46 405.225 1348.57 402.318C1350.71 399.387 1353.57 397.115 1357.16 395.502C1360.77 393.867 1364.8 393.049 1369.25 393.049C1373.75 393.049 1377.75 393.855 1381.25 395.468C1384.75 397.058 1387.52 399.239 1389.56 402.011C1391.63 404.782 1392.72 407.929 1392.84 411.45H1384.66Z" fill="black"/>
</svg>
